<svg xmlns="http://www.w3.org/2000/svg" width="820" height="500">
<rect width="100%" height="100%" fill="white"/>
<text x="410.0" y="32" text-anchor="middle" font-family="Arial, sans-serif" font-size="20" fill="#202124">Standard Pi0.5: delay-alignment ablation</text>
<line x1="90" y1="395.0" x2="740" y2="395.0" stroke="#e0e0e0"/>
<text x="78" y="400.0" text-anchor="end" font-family="Arial, sans-serif" font-size="12" fill="#202124">0%</text>
<line x1="90" y1="340.0" x2="740" y2="340.0" stroke="#e0e0e0"/>
<text x="78" y="345.0" text-anchor="end" font-family="Arial, sans-serif" font-size="12" fill="#202124">10%</text>
<line x1="90" y1="285.0" x2="740" y2="285.0" stroke="#e0e0e0"/>
<text x="78" y="290.0" text-anchor="end" font-family="Arial, sans-serif" font-size="12" fill="#202124">20%</text>
<line x1="90" y1="230.0" x2="740" y2="230.0" stroke="#e0e0e0"/>
<text x="78" y="235.0" text-anchor="end" font-family="Arial, sans-serif" font-size="12" fill="#202124">30%</text>
<line x1="90" y1="175.0" x2="740" y2="175.0" stroke="#e0e0e0"/>
<text x="78" y="180.0" text-anchor="end" font-family="Arial, sans-serif" font-size="12" fill="#202124">40%</text>
<line x1="90" y1="120.0" x2="740" y2="120.0" stroke="#e0e0e0"/>
<text x="78" y="125.0" text-anchor="end" font-family="Arial, sans-serif" font-size="12" fill="#202124">50%</text>
<line x1="90" y1="65.0" x2="740" y2="65.0" stroke="#e0e0e0"/>
<text x="78" y="70.0" text-anchor="end" font-family="Arial, sans-serif" font-size="12" fill="#202124">60%</text>
<text x="90.0" y="423" text-anchor="middle" font-family="Arial, sans-serif" font-size="13" fill="#202124">100 ms</text>
<text x="415.0" y="423" text-anchor="middle" font-family="Arial, sans-serif" font-size="13" fill="#202124">200 ms</text>
<text x="740.0" y="423" text-anchor="middle" font-family="Arial, sans-serif" font-size="13" fill="#202124">400 ms</text>
<line x1="90" y1="230.0" x2="740" y2="230.0" stroke="#777" stroke-dasharray="7,6"/>
<text x="735" y="222.0" text-anchor="end" font-family="Arial, sans-serif" font-size="12" fill="#202124">sync baseline 30%</text>
<circle cx="90.0" cy="285.0" r="6" fill="#e45756"/>
<text x="90.0" y="272.0" text-anchor="middle" font-family="Arial, sans-serif" font-size="13" fill="#202124">20%</text>
<circle cx="415.0" cy="340.0" r="6" fill="#e45756"/>
<text x="415.0" y="327.0" text-anchor="middle" font-family="Arial, sans-serif" font-size="13" fill="#202124">10%</text>
<circle cx="740.0" cy="340.0" r="6" fill="#e45756"/>
<text x="740.0" y="327.0" text-anchor="middle" font-family="Arial, sans-serif" font-size="13" fill="#202124">10%</text>
<polyline points="90.0,285.0 415.0,340.0 740.0,340.0" fill="none" stroke="#e45756" stroke-width="4"/>
<line x1="290" y1="435" x2="330" y2="435" stroke="#e45756" stroke-width="4"/>
<text x="340" y="440" text-anchor="start" font-family="Arial, sans-serif" font-size="13" fill="#202124">Naive delayed</text>
<circle cx="90.0" cy="340.0" r="6" fill="#4c78a8"/>
<text x="90.0" y="327.0" text-anchor="middle" font-family="Arial, sans-serif" font-size="13" fill="#202124">10%</text>
<circle cx="415.0" cy="175.0" r="6" fill="#4c78a8"/>
<text x="415.0" y="162.0" text-anchor="middle" font-family="Arial, sans-serif" font-size="13" fill="#202124">40%</text>
<circle cx="740.0" cy="120.0" r="6" fill="#4c78a8"/>
<text x="740.0" y="107.0" text-anchor="middle" font-family="Arial, sans-serif" font-size="13" fill="#202124">50%</text>
<polyline points="90.0,340.0 415.0,175.0 740.0,120.0" fill="none" stroke="#4c78a8" stroke-width="4"/>
<line x1="290" y1="461" x2="330" y2="461" stroke="#4c78a8" stroke-width="4"/>
<text x="340" y="466" text-anchor="start" font-family="Arial, sans-serif" font-size="13" fill="#202124">Skip stale prefix</text>
</svg>