<svg xmlns="http://www.w3.org/2000/svg" width="900" height="500">
<rect width="100%" height="100%" fill="white"/>
<text x="450.0" y="32" text-anchor="middle" font-family="Arial, sans-serif" font-size="20" fill="#202124">LIBERO task 3 at 200 ms: closed-loop success</text>
<line x1="80" y1="395.0" x2="850" y2="395.0" stroke="#e0e0e0"/>
<text x="68" y="400.0" text-anchor="end" font-family="Arial, sans-serif" font-size="12" fill="#202124">0%</text>
<line x1="80" y1="340.0" x2="850" y2="340.0" stroke="#e0e0e0"/>
<text x="68" y="345.0" text-anchor="end" font-family="Arial, sans-serif" font-size="12" fill="#202124">10%</text>
<line x1="80" y1="285.0" x2="850" y2="285.0" stroke="#e0e0e0"/>
<text x="68" y="290.0" text-anchor="end" font-family="Arial, sans-serif" font-size="12" fill="#202124">20%</text>
<line x1="80" y1="230.0" x2="850" y2="230.0" stroke="#e0e0e0"/>
<text x="68" y="235.0" text-anchor="end" font-family="Arial, sans-serif" font-size="12" fill="#202124">30%</text>
<line x1="80" y1="175.0" x2="850" y2="175.0" stroke="#e0e0e0"/>
<text x="68" y="180.0" text-anchor="end" font-family="Arial, sans-serif" font-size="12" fill="#202124">40%</text>
<line x1="80" y1="120.0" x2="850" y2="120.0" stroke="#e0e0e0"/>
<text x="68" y="125.0" text-anchor="end" font-family="Arial, sans-serif" font-size="12" fill="#202124">50%</text>
<line x1="80" y1="65.0" x2="850" y2="65.0" stroke="#e0e0e0"/>
<text x="68" y="70.0" text-anchor="end" font-family="Arial, sans-serif" font-size="12" fill="#202124">60%</text>
<rect x="110" y="230.0" width="90" height="165.0" fill="#4c78a8" rx="3"/>
<text x="155.0" y="220.0" text-anchor="middle" font-family="Arial, sans-serif" font-size="14" fill="#202124">30%</text>
<text x="155.0" y="423" text-anchor="middle" font-family="Arial, sans-serif" font-size="12" fill="#202124">Sync</text>
<rect x="242" y="340.0" width="90" height="55.0" fill="#e45756" rx="3"/>
<text x="287.0" y="330.0" text-anchor="middle" font-family="Arial, sans-serif" font-size="14" fill="#202124">10%</text>
<text x="287.0" y="423" text-anchor="middle" font-family="Arial, sans-serif" font-size="12" fill="#202124">Naive</text>
<rect x="374" y="175.0" width="90" height="220.0" fill="#72b7b2" rx="3"/>
<text x="419.0" y="165.0" text-anchor="middle" font-family="Arial, sans-serif" font-size="14" fill="#202124">40%</text>
<text x="419.0" y="423" text-anchor="middle" font-family="Arial, sans-serif" font-size="12" fill="#202124">Skip</text>
<rect x="506" y="230.0" width="90" height="165.0" fill="#f2cf5b" rx="3"/>
<text x="551.0" y="220.0" text-anchor="middle" font-family="Arial, sans-serif" font-size="14" fill="#202124">30%</text>
<text x="551.0" y="423" text-anchor="middle" font-family="Arial, sans-serif" font-size="12" fill="#202124">Stale aug.</text>
<rect x="638" y="230.0" width="90" height="165.0" fill="#54a24b" rx="3"/>
<text x="683.0" y="220.0" text-anchor="middle" font-family="Arial, sans-serif" font-size="14" fill="#202124">30%</text>
<text x="683.0" y="423" text-anchor="middle" font-family="Arial, sans-serif" font-size="12" fill="#202124">Future state</text>
<rect x="770" y="175.0" width="90" height="220.0" fill="#b279a2" rx="3"/>
<text x="815.0" y="165.0" text-anchor="middle" font-family="Arial, sans-serif" font-size="14" fill="#202124">40%</text>
<text x="815.0" y="423" text-anchor="middle" font-family="Arial, sans-serif" font-size="12" fill="#202124">Learned stale</text>
<text x="450.0" y="480" text-anchor="middle" font-family="Arial, sans-serif" font-size="12" fill="#202124">10 paired initial states per condition</text>
</svg>