<svg xmlns="http://www.w3.org/2000/svg" width="820" height="430" viewBox="0 0 820 430">
<rect width="100%" height="100%" fill="#fbfbf8"/>
<text x="410.0" y="30" text-anchor="middle" font-family="Arial" font-size="18" font-weight="700">Qwen2.5-VL Estimated TTFT</text>
<line x1="82" y1="350" x2="790" y2="350" stroke="#333"/>
<line x1="82" y1="60" x2="82" y2="350" stroke="#333"/>
<text x="22" y="205.0" transform="rotate(-90 22 205.0)" text-anchor="middle" font-family="Arial" font-size="13">TTFT ms</text>
<line x1="78" y1="350.0" x2="790" y2="350.0" stroke="#ddd"/>
<text x="72" y="354.0" text-anchor="end" font-family="Arial" font-size="11" fill="#555">0</text>
<line x1="78" y1="277.5" x2="790" y2="277.5" stroke="#ddd"/>
<text x="72" y="281.5" text-anchor="end" font-family="Arial" font-size="11" fill="#555">59</text>
<line x1="78" y1="205.0" x2="790" y2="205.0" stroke="#ddd"/>
<text x="72" y="209.0" text-anchor="end" font-family="Arial" font-size="11" fill="#555">119</text>
<line x1="78" y1="132.5" x2="790" y2="132.5" stroke="#ddd"/>
<text x="72" y="136.5" text-anchor="end" font-family="Arial" font-size="11" fill="#555">178</text>
<line x1="78" y1="60.0" x2="790" y2="60.0" stroke="#ddd"/>
<text x="72" y="64.0" text-anchor="end" font-family="Arial" font-size="11" fill="#555">238</text>
<rect x="119.2" y="273.6" width="102.7" height="76.4" rx="3" fill="#2f6f73"/>
<text x="170.5" y="265.6" text-anchor="middle" font-family="Arial" font-size="12" font-weight="700">62.7</text>
<text x="170.5" y="374" text-anchor="middle" font-family="Arial" font-size="11">1img\n224p</text>
<rect x="296.2" y="219.2" width="102.7" height="130.8" rx="3" fill="#c55f36"/>
<text x="347.5" y="211.2" text-anchor="middle" font-family="Arial" font-size="12" font-weight="700">107.3</text>
<text x="347.5" y="374" text-anchor="middle" font-family="Arial" font-size="11">1img\n448p</text>
<rect x="473.2" y="249.9" width="102.7" height="100.1" rx="3" fill="#455a8a"/>
<text x="524.5" y="241.9" text-anchor="middle" font-family="Arial" font-size="12" font-weight="700">82.2</text>
<text x="524.5" y="374" text-anchor="middle" font-family="Arial" font-size="11">3img\n224p</text>
<rect x="650.2" y="104.2" width="102.7" height="245.8" rx="3" fill="#8b6f2f"/>
<text x="701.5" y="96.2" text-anchor="middle" font-family="Arial" font-size="12" font-weight="700">201.7</text>
<text x="701.5" y="374" text-anchor="middle" font-family="Arial" font-size="11">3img\n448p</text>
</svg>