<svg xmlns="http://www.w3.org/2000/svg" width="900" height="470" viewBox="0 0 900 470" role="img" aria-labelledby="title desc">
  <title id="title">Project 3 VLA action post-processing Triton speedup</title>
  <desc id="desc">Bar chart showing Triton fused action post-processing speedup over PyTorch for selected VLA action shapes.</desc>
  <rect width="900" height="470" fill="#ffffff"/>
  <text x="42" y="42" font-family="Arial, sans-serif" font-size="22" font-weight="700" fill="#172033">Triton fused VLA action post-processing</text>
  <text x="42" y="68" font-family="Arial, sans-serif" font-size="13" fill="#536174">BF16, RTX 4080 SUPER, speedup = PyTorch postprocess / Triton fused kernel</text>
  <line x1="90" y1="350" x2="820" y2="350" stroke="#d6dbe3"/>
  <line x1="90" y1="280" x2="820" y2="280" stroke="#eef1f5"/>
  <line x1="90" y1="210" x2="820" y2="210" stroke="#eef1f5"/>
  <line x1="90" y1="140" x2="820" y2="140" stroke="#eef1f5"/>
  <line x1="90" y1="70" x2="820" y2="70" stroke="#eef1f5"/>
  <line x1="90" y1="210" x2="820" y2="210" stroke="#8a94a6" stroke-dasharray="5 5"/>
  <text x="42" y="354" font-family="Arial, sans-serif" font-size="12" fill="#667085">0.0x</text>
  <text x="42" y="284" font-family="Arial, sans-serif" font-size="12" fill="#667085">0.5x</text>
  <text x="42" y="214" font-family="Arial, sans-serif" font-size="12" fill="#667085">1.0x</text>
  <text x="42" y="144" font-family="Arial, sans-serif" font-size="12" fill="#667085">1.5x</text>
  <text x="42" y="74" font-family="Arial, sans-serif" font-size="12" fill="#667085">2.0x</text>
  <text x="710" y="203" font-family="Arial, sans-serif" font-size="12" fill="#667085">parity</text>

  <rect x="132" y="226" width="74" height="124" rx="5" fill="#d76c5b"/>
  <rect x="258" y="150" width="74" height="200" rx="5" fill="#4f7cff"/>
  <rect x="384" y="96" width="74" height="254" rx="5" fill="#17a36b"/>
  <rect x="510" y="101" width="74" height="249" rx="5" fill="#17a36b"/>
  <rect x="636" y="148" width="74" height="202" rx="5" fill="#4f7cff"/>

  <text x="169" y="216" font-family="Arial, sans-serif" font-size="13" font-weight="700" fill="#172033" text-anchor="middle">0.89x</text>
  <text x="295" y="140" font-family="Arial, sans-serif" font-size="13" font-weight="700" fill="#172033" text-anchor="middle">1.43x</text>
  <text x="421" y="86" font-family="Arial, sans-serif" font-size="13" font-weight="700" fill="#172033" text-anchor="middle">1.81x</text>
  <text x="547" y="91" font-family="Arial, sans-serif" font-size="13" font-weight="700" fill="#172033" text-anchor="middle">1.78x</text>
  <text x="673" y="138" font-family="Arial, sans-serif" font-size="13" font-weight="700" fill="#172033" text-anchor="middle">1.44x</text>

  <text x="169" y="374" font-family="Arial, sans-serif" font-size="12" fill="#536174" text-anchor="middle">B1 H10 A14</text>
  <text x="295" y="374" font-family="Arial, sans-serif" font-size="12" fill="#536174" text-anchor="middle">B4 H10 A14</text>
  <text x="421" y="374" font-family="Arial, sans-serif" font-size="12" fill="#536174" text-anchor="middle">B16 H32 A14</text>
  <text x="547" y="374" font-family="Arial, sans-serif" font-size="12" fill="#536174" text-anchor="middle">B64 H32 A14</text>
  <text x="673" y="374" font-family="Arial, sans-serif" font-size="12" fill="#536174" text-anchor="middle">B256 H64 A64</text>

  <text x="120" y="425" font-family="Arial, sans-serif" font-size="12" fill="#536174">Kernel fuses denorm + clamp + mask select. Tiny shapes can lose; normal VLA batches benefit.</text>
</svg>
