<svg xmlns="http://www.w3.org/2000/svg" width="760" height="420" viewBox="0 0 760 420">
<rect width="100%" height="100%" fill="#fbfbf8"/>
<text x="380.0" y="30" text-anchor="middle" font-family="Arial" font-size="18" font-weight="700">Qwen3 KV Cache Speedup vs Full Recompute</text>
<line x1="76" y1="348" x2="732" y2="348" stroke="#333" stroke-width="1"/>
<line x1="76" y1="60" x2="76" y2="348" stroke="#333" stroke-width="1"/>
<text x="20" y="204.0" transform="rotate(-90 20 204.0)" text-anchor="middle" font-family="Arial" font-size="13">speedup</text>
<line x1="72" y1="348.0" x2="732" y2="348.0" stroke="#ddd" stroke-width="1"/>
<text x="66" y="352.0" text-anchor="end" font-family="Arial" font-size="11" fill="#555">0</text>
<line x1="72" y1="276.0" x2="732" y2="276.0" stroke="#ddd" stroke-width="1"/>
<text x="66" y="280.0" text-anchor="end" font-family="Arial" font-size="11" fill="#555">1</text>
<line x1="72" y1="204.0" x2="732" y2="204.0" stroke="#ddd" stroke-width="1"/>
<text x="66" y="208.0" text-anchor="end" font-family="Arial" font-size="11" fill="#555">1</text>
<line x1="72" y1="132.0" x2="732" y2="132.0" stroke="#ddd" stroke-width="1"/>
<text x="66" y="136.0" text-anchor="end" font-family="Arial" font-size="11" fill="#555">2</text>
<line x1="72" y1="60.0" x2="732" y2="60.0" stroke="#ddd" stroke-width="1"/>
<text x="66" y="64.0" text-anchor="end" font-family="Arial" font-size="11" fill="#555">3</text>
<rect x="99.0" y="256.7" width="63.4" height="91.3" fill="#2f6f73" rx="3"/>
<text x="130.7" y="248.7" text-anchor="middle" font-family="Arial" font-size="12" font-weight="700">0.90</text>
<text x="130.7" y="370" text-anchor="middle" font-family="Arial" font-size="11">B1\nP128</text>
<rect x="208.3" y="251.1" width="63.4" height="96.9" fill="#c55f36" rx="3"/>
<text x="240.0" y="243.1" text-anchor="middle" font-family="Arial" font-size="12" font-weight="700">0.95</text>
<text x="240.0" y="370" text-anchor="middle" font-family="Arial" font-size="11">B1\nP512</text>
<rect x="317.6" y="260.0" width="63.4" height="88.0" fill="#455a8a" rx="3"/>
<text x="349.3" y="252.0" text-anchor="middle" font-family="Arial" font-size="12" font-weight="700">0.86</text>
<text x="349.3" y="370" text-anchor="middle" font-family="Arial" font-size="11">B2\nP128</text>
<rect x="427.0" y="217.4" width="63.4" height="130.6" fill="#8b6f2f" rx="3"/>
<text x="458.7" y="209.4" text-anchor="middle" font-family="Arial" font-size="12" font-weight="700">1.28</text>
<text x="458.7" y="370" text-anchor="middle" font-family="Arial" font-size="11">B2\nP512</text>
<rect x="536.3" y="247.9" width="63.4" height="100.1" fill="#5c7f3b" rx="3"/>
<text x="568.0" y="239.9" text-anchor="middle" font-family="Arial" font-size="12" font-weight="700">0.98</text>
<text x="568.0" y="370" text-anchor="middle" font-family="Arial" font-size="11">B4\nP128</text>
<rect x="645.6" y="103.9" width="63.4" height="244.1" fill="#7a4f86" rx="3"/>
<text x="677.3" y="95.9" text-anchor="middle" font-family="Arial" font-size="12" font-weight="700">2.40</text>
<text x="677.3" y="370" text-anchor="middle" font-family="Arial" font-size="11">B4\nP512</text>
</svg>