<svg xmlns="http://www.w3.org/2000/svg" width="760" height="420" viewBox="0 0 760 420">
<rect width="100%" height="100%" fill="#fbfbf8"/>
<text x="380.0" y="30" text-anchor="middle" font-family="Arial" font-size="18" font-weight="700">Qwen3-0.6B SDPA Decode Throughput</text>
<line x1="76" y1="348" x2="732" y2="348" stroke="#333" stroke-width="1"/>
<line x1="76" y1="60" x2="76" y2="348" stroke="#333" stroke-width="1"/>
<text x="20" y="204.0" transform="rotate(-90 20 204.0)" text-anchor="middle" font-family="Arial" font-size="13">decode tokens/s</text>
<line x1="72" y1="348.0" x2="732" y2="348.0" stroke="#ddd" stroke-width="1"/>
<text x="66" y="352.0" text-anchor="end" font-family="Arial" font-size="11" fill="#555">0</text>
<line x1="72" y1="276.0" x2="732" y2="276.0" stroke="#ddd" stroke-width="1"/>
<text x="66" y="280.0" text-anchor="end" font-family="Arial" font-size="11" fill="#555">66</text>
<line x1="72" y1="204.0" x2="732" y2="204.0" stroke="#ddd" stroke-width="1"/>
<text x="66" y="208.0" text-anchor="end" font-family="Arial" font-size="11" fill="#555">131</text>
<line x1="72" y1="132.0" x2="732" y2="132.0" stroke="#ddd" stroke-width="1"/>
<text x="66" y="136.0" text-anchor="end" font-family="Arial" font-size="11" fill="#555">197</text>
<line x1="72" y1="60.0" x2="732" y2="60.0" stroke="#ddd" stroke-width="1"/>
<text x="66" y="64.0" text-anchor="end" font-family="Arial" font-size="11" fill="#555">263</text>
<rect x="91.3" y="290.9" width="42.3" height="57.1" fill="#2f6f73" rx="3"/>
<text x="112.4" y="282.9" text-anchor="middle" font-family="Arial" font-size="12" font-weight="700">52.14</text>
<text x="112.4" y="370" text-anchor="middle" font-family="Arial" font-size="11">B1\nP128</text>
<rect x="164.2" y="231.5" width="42.3" height="116.5" fill="#c55f36" rx="3"/>
<text x="185.3" y="223.5" text-anchor="middle" font-family="Arial" font-size="12" font-weight="700">106.30</text>
<text x="185.3" y="370" text-anchor="middle" font-family="Arial" font-size="11">B2\nP128</text>
<rect x="237.1" y="103.9" width="42.3" height="244.1" fill="#455a8a" rx="3"/>
<text x="258.2" y="95.9" text-anchor="middle" font-family="Arial" font-size="12" font-weight="700">222.75</text>
<text x="258.2" y="370" text-anchor="middle" font-family="Arial" font-size="11">B4\nP128</text>
<rect x="310.0" y="289.7" width="42.3" height="58.3" fill="#8b6f2f" rx="3"/>
<text x="331.1" y="281.7" text-anchor="middle" font-family="Arial" font-size="12" font-weight="700">53.17</text>
<text x="331.1" y="370" text-anchor="middle" font-family="Arial" font-size="11">B1\nP512</text>
<rect x="382.9" y="231.5" width="42.3" height="116.5" fill="#5c7f3b" rx="3"/>
<text x="404.0" y="223.5" text-anchor="middle" font-family="Arial" font-size="12" font-weight="700">106.36</text>
<text x="404.0" y="370" text-anchor="middle" font-family="Arial" font-size="11">B2\nP512</text>
<rect x="455.8" y="107.7" width="42.3" height="240.3" fill="#7a4f86" rx="3"/>
<text x="476.9" y="99.7" text-anchor="middle" font-family="Arial" font-size="12" font-weight="700">219.30</text>
<text x="476.9" y="370" text-anchor="middle" font-family="Arial" font-size="11">B4\nP512</text>
<rect x="528.6" y="288.7" width="42.3" height="59.3" fill="#2f6f73" rx="3"/>
<text x="549.8" y="280.7" text-anchor="middle" font-family="Arial" font-size="12" font-weight="700">54.08</text>
<text x="549.8" y="370" text-anchor="middle" font-family="Arial" font-size="11">B1\nP1024</text>
<rect x="601.5" y="230.3" width="42.3" height="117.7" fill="#c55f36" rx="3"/>
<text x="622.7" y="222.3" text-anchor="middle" font-family="Arial" font-size="12" font-weight="700">107.46</text>
<text x="622.7" y="370" text-anchor="middle" font-family="Arial" font-size="11">B2\nP1024</text>
<rect x="674.4" y="105.9" width="42.3" height="242.1" fill="#455a8a" rx="3"/>
<text x="695.6" y="97.9" text-anchor="middle" font-family="Arial" font-size="12" font-weight="700">220.95</text>
<text x="695.6" y="370" text-anchor="middle" font-family="Arial" font-size="11">B4\nP1024</text>
</svg>