<svg xmlns="http://www.w3.org/2000/svg" width="760" height="420" viewBox="0 0 760 420">
<rect width="100%" height="100%" fill="#fbfbf8"/>
<text x="380.0" y="30" text-anchor="middle" font-family="Arial" font-size="18" font-weight="700">Qwen3 Hidden-1024 VLA Action Postprocess Speedup</text>
<line x1="76" y1="348" x2="732" y2="348" stroke="#333" stroke-width="1"/>
<line x1="76" y1="60" x2="76" y2="348" stroke="#333" stroke-width="1"/>
<text x="20" y="204.0" transform="rotate(-90 20 204.0)" text-anchor="middle" font-family="Arial" font-size="13">Triton / PyTorch speedup</text>
<line x1="72" y1="348.0" x2="732" y2="348.0" stroke="#ddd" stroke-width="1"/>
<text x="66" y="352.0" text-anchor="end" font-family="Arial" font-size="11" fill="#555">0</text>
<line x1="72" y1="276.0" x2="732" y2="276.0" stroke="#ddd" stroke-width="1"/>
<text x="66" y="280.0" text-anchor="end" font-family="Arial" font-size="11" fill="#555">1</text>
<line x1="72" y1="204.0" x2="732" y2="204.0" stroke="#ddd" stroke-width="1"/>
<text x="66" y="208.0" text-anchor="end" font-family="Arial" font-size="11" fill="#555">1</text>
<line x1="72" y1="132.0" x2="732" y2="132.0" stroke="#ddd" stroke-width="1"/>
<text x="66" y="136.0" text-anchor="end" font-family="Arial" font-size="11" fill="#555">2</text>
<line x1="72" y1="60.0" x2="732" y2="60.0" stroke="#ddd" stroke-width="1"/>
<text x="66" y="64.0" text-anchor="end" font-family="Arial" font-size="11" fill="#555">3</text>
<rect x="85.2" y="201.6" width="25.4" height="146.4" fill="#2f6f73" rx="3"/>
<text x="97.9" y="193.6" text-anchor="middle" font-family="Arial" font-size="12" font-weight="700">1.43</text>
<text x="97.9" y="370" text-anchor="middle" font-family="Arial" font-size="11">B1\nH10</text>
<rect x="128.9" y="194.8" width="25.4" height="153.2" fill="#c55f36" rx="3"/>
<text x="141.6" y="186.8" text-anchor="middle" font-family="Arial" font-size="12" font-weight="700">1.49</text>
<text x="141.6" y="370" text-anchor="middle" font-family="Arial" font-size="11">B1\nH32</text>
<rect x="172.7" y="200.9" width="25.4" height="147.1" fill="#455a8a" rx="3"/>
<text x="185.3" y="192.9" text-anchor="middle" font-family="Arial" font-size="12" font-weight="700">1.43</text>
<text x="185.3" y="370" text-anchor="middle" font-family="Arial" font-size="11">B1\nH64</text>
<rect x="216.4" y="103.9" width="25.4" height="244.1" fill="#8b6f2f" rx="3"/>
<text x="229.1" y="95.9" text-anchor="middle" font-family="Arial" font-size="12" font-weight="700">2.38</text>
<text x="229.1" y="370" text-anchor="middle" font-family="Arial" font-size="11">B4\nH10</text>
<rect x="260.1" y="199.8" width="25.4" height="148.2" fill="#5c7f3b" rx="3"/>
<text x="272.8" y="191.8" text-anchor="middle" font-family="Arial" font-size="12" font-weight="700">1.44</text>
<text x="272.8" y="370" text-anchor="middle" font-family="Arial" font-size="11">B4\nH32</text>
<rect x="303.9" y="201.7" width="25.4" height="146.3" fill="#7a4f86" rx="3"/>
<text x="316.5" y="193.7" text-anchor="middle" font-family="Arial" font-size="12" font-weight="700">1.43</text>
<text x="316.5" y="370" text-anchor="middle" font-family="Arial" font-size="11">B4\nH64</text>
<rect x="347.6" y="294.2" width="25.4" height="53.8" fill="#2f6f73" rx="3"/>
<text x="360.3" y="286.2" text-anchor="middle" font-family="Arial" font-size="12" font-weight="700">0.52</text>
<text x="360.3" y="370" text-anchor="middle" font-family="Arial" font-size="11">B16\nH10</text>
<rect x="391.3" y="216.7" width="25.4" height="131.3" fill="#c55f36" rx="3"/>
<text x="404.0" y="208.7" text-anchor="middle" font-family="Arial" font-size="12" font-weight="700">1.28</text>
<text x="404.0" y="370" text-anchor="middle" font-family="Arial" font-size="11">B16\nH32</text>
<rect x="435.1" y="198.9" width="25.4" height="149.1" fill="#455a8a" rx="3"/>
<text x="447.7" y="190.9" text-anchor="middle" font-family="Arial" font-size="12" font-weight="700">1.45</text>
<text x="447.7" y="370" text-anchor="middle" font-family="Arial" font-size="11">B16\nH64</text>
<rect x="478.8" y="198.4" width="25.4" height="149.6" fill="#8b6f2f" rx="3"/>
<text x="491.5" y="190.4" text-anchor="middle" font-family="Arial" font-size="12" font-weight="700">1.46</text>
<text x="491.5" y="370" text-anchor="middle" font-family="Arial" font-size="11">B64\nH10</text>
<rect x="522.5" y="337.8" width="25.4" height="10.2" fill="#5c7f3b" rx="3"/>
<text x="535.2" y="329.8" text-anchor="middle" font-family="Arial" font-size="12" font-weight="700">0.10</text>
<text x="535.2" y="370" text-anchor="middle" font-family="Arial" font-size="11">B64\nH32</text>
<rect x="566.3" y="204.8" width="25.4" height="143.2" fill="#7a4f86" rx="3"/>
<text x="578.9" y="196.8" text-anchor="middle" font-family="Arial" font-size="12" font-weight="700">1.40</text>
<text x="578.9" y="370" text-anchor="middle" font-family="Arial" font-size="11">B64\nH64</text>
<rect x="610.0" y="197.8" width="25.4" height="150.2" fill="#2f6f73" rx="3"/>
<text x="622.7" y="189.8" text-anchor="middle" font-family="Arial" font-size="12" font-weight="700">1.46</text>
<text x="622.7" y="370" text-anchor="middle" font-family="Arial" font-size="11">B256\nH10</text>
<rect x="653.7" y="201.2" width="25.4" height="146.8" fill="#c55f36" rx="3"/>
<text x="666.4" y="193.2" text-anchor="middle" font-family="Arial" font-size="12" font-weight="700">1.43</text>
<text x="666.4" y="370" text-anchor="middle" font-family="Arial" font-size="11">B256\nH32</text>
<rect x="697.5" y="201.8" width="25.4" height="146.2" fill="#455a8a" rx="3"/>
<text x="710.1" y="193.8" text-anchor="middle" font-family="Arial" font-size="12" font-weight="700">1.43</text>
<text x="710.1" y="370" text-anchor="middle" font-family="Arial" font-size="11">B256\nH64</text>
</svg>