<svg xmlns="http://www.w3.org/2000/svg" width="820" height="420" viewBox="0 0 820 420" role="img" aria-labelledby="title desc">
  <title id="title">Project 3 Qwen2 prefill and memory scaling</title>
  <desc id="desc">Grouped chart showing prefill latency and max GPU memory for selected Qwen2 prompt and batch sizes.</desc>
  <rect width="820" height="420" fill="#ffffff"/>
  <text x="40" y="42" font-family="Arial, sans-serif" font-size="22" font-weight="700" fill="#172033">Prefill latency and memory scaling</text>
  <text x="40" y="68" font-family="Arial, sans-serif" font-size="13" fill="#536174">Qwen2-0.5B, SDPA + BF16, decode length 128</text>
  <line x1="92" y1="330" x2="760" y2="330" stroke="#d6dbe3"/>
  <line x1="92" y1="240" x2="760" y2="240" stroke="#eef1f5"/>
  <line x1="92" y1="150" x2="760" y2="150" stroke="#eef1f5"/>
  <text x="52" y="334" font-family="Arial, sans-serif" font-size="12" fill="#667085">0</text>
  <text x="39" y="244" font-family="Arial, sans-serif" font-size="12" fill="#667085">30ms</text>
  <text x="39" y="154" font-family="Arial, sans-serif" font-size="12" fill="#667085">60ms</text>
  <rect x="132" y="297" width="46" height="33" rx="4" fill="#4f7cff"/>
  <rect x="186" y="269" width="46" height="61" rx="4" fill="#17a36b"/>
  <rect x="282" y="281" width="46" height="49" rx="4" fill="#4f7cff"/>
  <rect x="336" y="249" width="46" height="81" rx="4" fill="#17a36b"/>
  <rect x="432" y="293" width="46" height="37" rx="4" fill="#4f7cff"/>
  <rect x="486" y="248" width="46" height="82" rx="4" fill="#17a36b"/>
  <rect x="582" y="155" width="46" height="175" rx="4" fill="#4f7cff"/>
  <rect x="636" y="60" width="46" height="270" rx="4" fill="#17a36b"/>
  <text x="155" y="287" font-family="Arial, sans-serif" font-size="12" font-weight="700" fill="#172033" text-anchor="middle">11.0ms</text>
  <text x="305" y="271" font-family="Arial, sans-serif" font-size="12" font-weight="700" fill="#172033" text-anchor="middle">16.4ms</text>
  <text x="455" y="283" font-family="Arial, sans-serif" font-size="12" font-weight="700" fill="#172033" text-anchor="middle">12.2ms</text>
  <text x="605" y="145" font-family="Arial, sans-serif" font-size="12" font-weight="700" fill="#172033" text-anchor="middle">58.4ms</text>
  <text x="209" y="259" font-family="Arial, sans-serif" font-size="12" font-weight="700" fill="#172033" text-anchor="middle">1.1GiB</text>
  <text x="359" y="239" font-family="Arial, sans-serif" font-size="12" font-weight="700" fill="#172033" text-anchor="middle">1.8GiB</text>
  <text x="509" y="238" font-family="Arial, sans-serif" font-size="12" font-weight="700" fill="#172033" text-anchor="middle">1.4GiB</text>
  <text x="659" y="50" font-family="Arial, sans-serif" font-size="12" font-weight="700" fill="#172033" text-anchor="middle">4.6GiB</text>
  <text x="182" y="354" font-family="Arial, sans-serif" font-size="12" fill="#536174" text-anchor="middle">B1 P128</text>
  <text x="332" y="354" font-family="Arial, sans-serif" font-size="12" fill="#536174" text-anchor="middle">B1 P1024</text>
  <text x="482" y="354" font-family="Arial, sans-serif" font-size="12" fill="#536174" text-anchor="middle">B4 P128</text>
  <text x="632" y="354" font-family="Arial, sans-serif" font-size="12" fill="#536174" text-anchor="middle">B4 P1024</text>
  <rect x="540" y="35" width="14" height="14" rx="3" fill="#4f7cff"/>
  <text x="561" y="47" font-family="Arial, sans-serif" font-size="12" fill="#536174">prefill latency</text>
  <rect x="540" y="58" width="14" height="14" rx="3" fill="#17a36b"/>
  <text x="561" y="70" font-family="Arial, sans-serif" font-size="12" fill="#536174">max memory</text>
</svg>
