<svg xmlns="http://www.w3.org/2000/svg" width="820" height="420" viewBox="0 0 820 420" role="img" aria-labelledby="title desc">
  <title id="title">Project 3 Qwen2 cached decode throughput</title>
  <desc id="desc">Bar chart of cached decode tokens per second for Qwen2 0.5B under SDPA BF16.</desc>
  <rect width="820" height="420" fill="#ffffff"/>
  <text x="40" y="42" font-family="Arial, sans-serif" font-size="22" font-weight="700" fill="#172033">Qwen2 cached decode throughput</text>
  <text x="40" y="68" font-family="Arial, sans-serif" font-size="13" fill="#536174">SDPA + BF16, decode length 128, RTX 4080 SUPER</text>
  <line x1="86" y1="330" x2="760" y2="330" stroke="#d6dbe3"/>
  <line x1="86" y1="263" x2="760" y2="263" stroke="#eef1f5"/>
  <line x1="86" y1="196" x2="760" y2="196" stroke="#eef1f5"/>
  <line x1="86" y1="129" x2="760" y2="129" stroke="#eef1f5"/>
  <text x="42" y="334" font-family="Arial, sans-serif" font-size="12" fill="#667085">0</text>
  <text x="34" y="267" font-family="Arial, sans-serif" font-size="12" fill="#667085">100</text>
  <text x="34" y="200" font-family="Arial, sans-serif" font-size="12" fill="#667085">200</text>
  <text x="34" y="133" font-family="Arial, sans-serif" font-size="12" fill="#667085">300</text>
  <text x="86" y="100" font-family="Arial, sans-serif" font-size="12" fill="#667085">decode tokens/s</text>
  <rect x="140" y="271" width="88" height="59" rx="5" fill="#4f7cff"/>
  <rect x="260" y="218" width="88" height="112" rx="5" fill="#4f7cff"/>
  <rect x="380" y="102" width="88" height="228" rx="5" fill="#4f7cff"/>
  <rect x="570" y="112" width="88" height="218" rx="5" fill="#17a36b"/>
  <text x="184" y="260" font-family="Arial, sans-serif" font-size="13" font-weight="700" fill="#172033" text-anchor="middle">88.0</text>
  <text x="304" y="207" font-family="Arial, sans-serif" font-size="13" font-weight="700" fill="#172033" text-anchor="middle">168.0</text>
  <text x="424" y="91" font-family="Arial, sans-serif" font-size="13" font-weight="700" fill="#172033" text-anchor="middle">340.8</text>
  <text x="614" y="101" font-family="Arial, sans-serif" font-size="13" font-weight="700" fill="#172033" text-anchor="middle">325.6</text>
  <text x="184" y="352" font-family="Arial, sans-serif" font-size="12" fill="#536174" text-anchor="middle">B1 P128</text>
  <text x="304" y="352" font-family="Arial, sans-serif" font-size="12" fill="#536174" text-anchor="middle">B2 P128</text>
  <text x="424" y="352" font-family="Arial, sans-serif" font-size="12" fill="#536174" text-anchor="middle">B4 P128</text>
  <text x="614" y="352" font-family="Arial, sans-serif" font-size="12" fill="#536174" text-anchor="middle">B4 P1024</text>
</svg>
