<svg xmlns="http://www.w3.org/2000/svg" width="900" height="440" viewBox="0 0 900 440">
<rect width="100%" height="100%" fill="#fbfbf8"/>
<text x="450.0" y="30" text-anchor="middle" font-family="Arial" font-size="18" font-weight="700">VLASH-Inspired Control Loop Error</text>
<line x1="92" y1="354" x2="868" y2="354" stroke="#333"/>
<line x1="92" y1="62" x2="92" y2="354" stroke="#333"/>
<text x="25" y="208.0" transform="rotate(-90 25 208.0)" text-anchor="middle" font-family="Arial" font-size="13">mean absolute error</text>
<line x1="88" y1="354.0" x2="868" y2="354.0" stroke="#ddd"/>
<text x="82" y="358.0" text-anchor="end" font-family="Arial" font-size="11" fill="#555">0.0</text>
<line x1="88" y1="281.0" x2="868" y2="281.0" stroke="#ddd"/>
<text x="82" y="285.0" text-anchor="end" font-family="Arial" font-size="11" fill="#555">0.0</text>
<line x1="88" y1="208.0" x2="868" y2="208.0" stroke="#ddd"/>
<text x="82" y="212.0" text-anchor="end" font-family="Arial" font-size="11" fill="#555">0.1</text>
<line x1="88" y1="135.0" x2="868" y2="135.0" stroke="#ddd"/>
<text x="82" y="139.0" text-anchor="end" font-family="Arial" font-size="11" fill="#555">0.1</text>
<line x1="88" y1="62.0" x2="868" y2="62.0" stroke="#ddd"/>
<text x="82" y="66.0" text-anchor="end" font-family="Arial" font-size="11" fill="#555">0.1</text>
<rect x="135.7" y="213.3" width="106.7" height="140.7" rx="3" fill="#455a8a"/>
<text x="189.0" y="205.3" text-anchor="middle" font-family="Arial" font-size="11" font-weight="700">0.054</text>
<text x="189.0" y="379" text-anchor="middle" font-family="Arial" font-size="12">sync</text>
<rect x="329.6" y="114.7" width="106.7" height="239.3" rx="3" fill="#c55f36"/>
<text x="383.0" y="106.7" text-anchor="middle" font-family="Arial" font-size="11" font-weight="700">0.093</text>
<text x="383.0" y="379" text-anchor="middle" font-family="Arial" font-size="12">async</text>
<rect x="523.6" y="161.1" width="106.7" height="192.9" rx="3" fill="#2f6f73"/>
<text x="577.0" y="153.1" text-anchor="middle" font-family="Arial" font-size="11" font-weight="700">0.075</text>
<text x="577.0" y="379" text-anchor="middle" font-family="Arial" font-size="12">future</text>
<rect x="717.6" y="162.1" width="106.7" height="191.9" rx="3" fill="#8b6f2f"/>
<text x="771.0" y="154.1" text-anchor="middle" font-family="Arial" font-size="11" font-weight="700">0.074</text>
<text x="771.0" y="379" text-anchor="middle" font-family="Arial" font-size="12">future+q2</text>
</svg>