<svg xmlns="http://www.w3.org/2000/svg" width="900" height="440" viewBox="0 0 900 440">
<rect width="100%" height="100%" fill="#fbfbf8"/>
<text x="450.0" y="30" text-anchor="middle" font-family="Arial" font-size="18" font-weight="700">Estimated KV Cache Footprint, 8 Requests</text>
<line x1="86" y1="350" x2="870" y2="350" stroke="#333"/>
<line x1="86" y1="60" x2="86" y2="350" stroke="#333"/>
<text x="22" y="205.0" transform="rotate(-90 22 205.0)" text-anchor="middle" font-family="Arial" font-size="13">MiB</text>
<line x1="82" y1="350.0" x2="870" y2="350.0" stroke="#ddd"/>
<text x="76" y="354.0" text-anchor="end" font-family="Arial" font-size="11" fill="#555">0.0</text>
<line x1="82" y1="277.5" x2="870" y2="277.5" stroke="#ddd"/>
<text x="76" y="281.5" text-anchor="end" font-family="Arial" font-size="11" fill="#555">70.1</text>
<line x1="82" y1="205.0" x2="870" y2="205.0" stroke="#ddd"/>
<text x="76" y="209.0" text-anchor="end" font-family="Arial" font-size="11" fill="#555">140.2</text>
<line x1="82" y1="132.5" x2="870" y2="132.5" stroke="#ddd"/>
<text x="76" y="136.5" text-anchor="end" font-family="Arial" font-size="11" fill="#555">210.3</text>
<line x1="82" y1="60.0" x2="870" y2="60.0" stroke="#ddd"/>
<text x="76" y="64.0" text-anchor="end" font-family="Arial" font-size="11" fill="#555">280.4</text>
<rect x="168.3" y="271.8" width="227.4" height="78.2" rx="3" fill="#2f6f73"/>
<text x="282.0" y="263.8" text-anchor="middle" font-family="Arial" font-size="12" font-weight="700">75.66</text>
<text x="282.0" y="374" text-anchor="middle" font-family="Arial" font-size="10">3x224</text>
<rect x="560.3" y="104.2" width="227.4" height="245.8" rx="3" fill="#c55f36"/>
<text x="674.0" y="96.2" text-anchor="middle" font-family="Arial" font-size="12" font-weight="700">237.66</text>
<text x="674.0" y="374" text-anchor="middle" font-family="Arial" font-size="10">3x448</text>
</svg>