<svg xmlns="http://www.w3.org/2000/svg" width="980" height="420" viewBox="0 0 980 420">
<rect width="100%" height="100%" fill="#fbfbf8"/>
<text x="490.0" y="30" text-anchor="middle" font-family="Arial" font-size="18" font-weight="700">Future-State Async Queue Tracking</text>
<line x1="76" y1="358" x2="946" y2="358" stroke="#333"/>
<line x1="76" y1="58" x2="76" y2="358" stroke="#333"/>
<line x1="76.0" y1="358" x2="76.0" y2="362" stroke="#333"/>
<text x="76.0" y="380" text-anchor="middle" font-family="Arial" font-size="11">0.0s</text>
<line x1="250.0" y1="358" x2="250.0" y2="362" stroke="#333"/>
<text x="250.0" y="380" text-anchor="middle" font-family="Arial" font-size="11">2.4s</text>
<line x1="424.0" y1="358" x2="424.0" y2="362" stroke="#333"/>
<text x="424.0" y="380" text-anchor="middle" font-family="Arial" font-size="11">4.8s</text>
<line x1="598.0" y1="358" x2="598.0" y2="362" stroke="#333"/>
<text x="598.0" y="380" text-anchor="middle" font-family="Arial" font-size="11">7.2s</text>
<line x1="772.0" y1="358" x2="772.0" y2="362" stroke="#333"/>
<text x="772.0" y="380" text-anchor="middle" font-family="Arial" font-size="11">9.6s</text>
<line x1="946.0" y1="358" x2="946.0" y2="362" stroke="#333"/>
<text x="946.0" y="380" text-anchor="middle" font-family="Arial" font-size="11">12.0s</text>
<line x1="72" y1="358.0" x2="946" y2="358.0" stroke="#ddd"/>
<text x="66" y="362.0" text-anchor="end" font-family="Arial" font-size="11" fill="#555">-0.1</text>
<line x1="72" y1="283.0" x2="946" y2="283.0" stroke="#ddd"/>
<text x="66" y="287.0" text-anchor="end" font-family="Arial" font-size="11" fill="#555">0.3</text>
<line x1="72" y1="208.0" x2="946" y2="208.0" stroke="#ddd"/>
<text x="66" y="212.0" text-anchor="end" font-family="Arial" font-size="11" fill="#555">0.6</text>
<line x1="72" y1="133.0" x2="946" y2="133.0" stroke="#ddd"/>
<text x="66" y="137.0" text-anchor="end" font-family="Arial" font-size="11" fill="#555">0.9</text>
<line x1="72" y1="58.0" x2="946" y2="58.0" stroke="#ddd"/>
<text x="66" y="62.0" text-anchor="end" font-family="Arial" font-size="11" fill="#555">1.2</text>
<path d="M76.0,346.0 L78.4,346.0 L80.8,346.0 L83.3,346.0 L85.7,346.0 L88.1,346.0 L90.5,346.0 L93.0,346.0 L95.4,346.0 L97.8,346.0 L100.2,346.0 L102.7,346.0 L105.1,346.0 L107.5,346.0 L109.9,346.0 L112.4,346.0 L114.8,346.0 L117.2,346.0 L119.6,346.0 L122.0,346.0 L124.5,346.0 L126.9,346.0 L129.3,346.0 L131.7,346.0 L134.2,346.0 L136.6,346.0 L139.0,346.0 L141.4,346.0 L143.9,346.0 L146.3,346.0 L148.7,346.0 L151.1,346.0 L153.5,346.0 L156.0,346.0 L158.4,346.0 L160.8,346.0 L163.2,346.0 L165.7,346.0 L168.1,346.0 L170.5,346.0 L172.9,346.0 L175.4,346.0 L177.8,346.0 L180.2,346.0 L182.6,346.0 L185.1,346.0 L187.5,346.0 L189.9,346.0 L192.3,346.0 L194.7,346.0 L197.2,346.0 L199.6,346.0 L202.0,346.0 L204.4,346.0 L206.9,346.0 L209.3,346.0 L211.7,346.0 L214.1,346.0 L216.6,346.0 L219.0,346.0 L221.4,106.0 L223.8,106.0 L226.3,106.0 L228.7,106.0 L231.1,106.0 L233.5,106.0 L235.9,106.0 L238.4,106.0 L240.8,106.0 L243.2,106.0 L245.6,106.0 L248.1,106.0 L250.5,106.0 L252.9,106.0 L255.3,106.0 L257.8,106.0 L260.2,106.0 L262.6,106.0 L265.0,106.0 L267.4,106.0 L269.9,106.0 L272.3,106.0 L274.7,106.0 L277.1,106.0 L279.6,106.0 L282.0,106.0 L284.4,106.0 L286.8,106.0 L289.3,106.0 L291.7,106.0 L294.1,106.0 L296.5,106.0 L299.0,106.0 L301.4,106.0 L303.8,106.0 L306.2,106.0 L308.6,106.0 L311.1,106.0 L313.5,106.0 L315.9,106.0 L318.3,106.0 L320.8,106.0 L323.2,106.0 L325.6,106.0 L328.0,106.0 L330.5,106.0 L332.9,106.0 L335.3,106.0 L337.7,106.0 L340.2,106.0 L342.6,106.0 L345.0,106.0 L347.4,106.0 L349.8,106.0 L352.3,106.0 L354.7,106.0 L357.1,106.0 L359.5,106.0 L362.0,106.0 L364.4,106.0 L366.8,106.0 L369.2,106.0 L371.7,106.0 L374.1,106.0 L376.5,106.0 L378.9,106.0 L381.3,106.0 L383.8,106.0 L386.2,106.0 L388.6,106.0 L391.0,106.0 L393.5,106.0 L395.9,106.0 L398.3,106.0 L400.7,106.0 L403.2,106.0 L405.6,106.0 L408.0,106.0 L410.4,106.0 L412.9,106.0 L415.3,106.0 L417.7,106.0 L420.1,106.0 L422.5,106.0 L425.0,106.0 L427.4,106.0 L429.8,106.0 L432.2,106.0 L434.7,106.0 L437.1,106.0 L439.5,106.0 L441.9,106.0 L444.4,106.0 L446.8,106.0 L449.2,106.0 L451.6,106.0 L454.1,106.0 L456.5,106.0 L458.9,106.0 L461.3,106.0 L463.7,106.0 L466.2,106.0 L468.6,106.0 L471.0,106.0 L473.4,106.0 L475.9,106.0 L478.3,106.0 L480.7,106.0 L483.1,106.0 L485.6,106.0 L488.0,106.0 L490.4,106.0 L492.8,106.0 L495.2,106.0 L497.7,106.0 L500.1,106.0 L502.5,106.0 L504.9,106.0 L507.4,106.0 L509.8,106.0 L512.2,106.0 L514.6,106.0 L517.1,106.0 L519.5,106.0 L521.9,106.0 L524.3,106.0 L526.8,106.0 L529.2,106.0 L531.6,106.0 L534.0,106.0 L536.4,106.0 L538.9,106.0 L541.3,106.0 L543.7,106.0 L546.1,106.0 L548.6,106.0 L551.0,106.0 L553.4,106.0 L555.8,106.0 L558.3,106.0 L560.7,106.0 L563.1,106.0 L565.5,106.0 L567.9,106.0 L570.4,106.0 L572.8,106.0 L575.2,106.0 L577.6,106.0 L580.1,106.0 L582.5,106.0 L584.9,106.0 L587.3,106.0 L589.8,106.0 L592.2,106.0 L594.6,106.0 L597.0,106.0 L599.5,106.0 L601.9,106.0 L604.3,106.0 L606.7,106.0 L609.1,106.0 L611.6,106.0 L614.0,106.0 L616.4,106.0 L618.8,106.0 L621.3,106.0 L623.7,106.0 L626.1,106.0 L628.5,106.0 L631.0,106.0 L633.4,106.0 L635.8,106.0 L638.2,106.0 L640.7,106.0 L643.1,106.0 L645.5,106.0 L647.9,106.0 L650.3,106.0 L652.8,106.0 L655.2,106.0 L657.6,106.0 L660.0,106.0 L662.5,106.0 L664.9,106.0 L667.3,106.0 L669.7,106.0 L672.2,106.0 L674.6,106.0 L677.0,106.0 L679.4,106.0 L681.8,106.0 L684.3,106.0 L686.7,106.0 L689.1,106.0 L691.5,106.0 L694.0,106.0 L696.4,106.0 L698.8,106.0 L701.2,106.0 L703.7,106.0 L706.1,106.0 L708.5,106.0 L710.9,106.0 L713.4,106.0 L715.8,106.0 L718.2,106.0 L720.6,106.0 L723.0,106.0 L725.5,106.0 L727.9,106.0 L730.3,106.0 L732.7,106.0 L735.2,106.0 L737.6,106.0 L740.0,106.0 L742.4,106.0 L744.9,106.0 L747.3,106.0 L749.7,106.0 L752.1,106.0 L754.6,106.0 L757.0,106.0 L759.4,106.0 L761.8,106.0 L764.2,106.0 L766.7,106.0 L769.1,106.0 L771.5,106.0 L773.9,106.0 L776.4,106.0 L778.8,106.0 L781.2,106.0 L783.6,106.0 L786.1,106.0 L788.5,106.0 L790.9,106.0 L793.3,106.0 L795.7,106.0 L798.2,106.0 L800.6,106.0 L803.0,106.0 L805.4,106.0 L807.9,106.0 L810.3,106.0 L812.7,106.0 L815.1,106.0 L817.6,106.0 L820.0,106.0 L822.4,106.0 L824.8,106.0 L827.3,106.0 L829.7,106.0 L832.1,106.0 L834.5,106.0 L836.9,106.0 L839.4,106.0 L841.8,106.0 L844.2,106.0 L846.6,106.0 L849.1,106.0 L851.5,106.0 L853.9,106.0 L856.3,106.0 L858.8,106.0 L861.2,106.0 L863.6,106.0 L866.0,106.0 L868.5,106.0 L870.9,106.0 L873.3,106.0 L875.7,106.0 L878.1,106.0 L880.6,106.0 L883.0,106.0 L885.4,106.0 L887.8,106.0 L890.3,106.0 L892.7,106.0 L895.1,106.0 L897.5,106.0 L900.0,106.0 L902.4,106.0 L904.8,106.0 L907.2,106.0 L909.6,106.0 L912.1,106.0 L914.5,106.0 L916.9,106.0 L919.3,106.0 L921.8,106.0 L924.2,106.0 L926.6,106.0 L929.0,106.0 L931.5,106.0 L933.9,106.0 L936.3,106.0 L938.7,106.0 L941.2,106.0 L943.6,106.0 L946.0,106.0" fill="none" stroke="#333" stroke-width="2.2"/>
<path d="M76.0,346.0 L78.4,346.0 L80.8,346.0 L83.3,346.0 L85.7,346.0 L88.1,346.0 L90.5,346.0 L93.0,346.0 L95.4,346.0 L97.8,346.0 L100.2,346.0 L102.7,346.0 L105.1,346.0 L107.5,346.0 L109.9,346.0 L112.4,346.0 L114.8,346.0 L117.2,346.0 L119.6,346.0 L122.0,346.0 L124.5,346.0 L126.9,346.0 L129.3,346.0 L131.7,346.0 L134.2,346.0 L136.6,346.0 L139.0,346.0 L141.4,346.0 L143.9,346.0 L146.3,346.0 L148.7,346.0 L151.1,346.0 L153.5,346.0 L156.0,346.0 L158.4,346.0 L160.8,346.0 L163.2,346.0 L165.7,346.0 L168.1,346.0 L170.5,346.0 L172.9,346.0 L175.4,346.0 L177.8,346.0 L180.2,346.0 L182.6,346.0 L185.1,346.0 L187.5,346.0 L189.9,346.0 L192.3,346.0 L194.7,346.0 L197.2,346.0 L199.6,346.0 L202.0,346.0 L204.4,346.0 L206.9,346.0 L209.3,346.0 L211.7,346.0 L214.1,346.0 L216.6,346.0 L219.0,346.0 L221.4,346.0 L223.8,346.0 L226.3,346.0 L228.7,346.0 L231.1,346.0 L233.5,338.0 L235.9,330.0 L238.4,322.0 L240.8,314.0 L243.2,306.0 L245.6,298.0 L248.1,290.0 L250.5,282.0 L252.9,274.0 L255.3,266.0 L257.8,258.0 L260.2,250.0 L262.6,242.0 L265.0,234.0 L267.4,226.0 L269.9,218.0 L272.3,210.0 L274.7,202.0 L277.1,194.0 L279.6,186.0 L282.0,178.5 L284.4,171.8 L286.8,165.6 L289.3,160.1 L291.7,155.0 L294.1,150.4 L296.5,146.3 L299.0,142.5 L301.4,139.1 L303.8,136.0 L306.2,133.2 L308.6,130.7 L311.1,128.4 L313.5,126.3 L315.9,124.4 L318.3,122.7 L320.8,121.1 L323.2,119.7 L325.6,117.6 L328.0,115.7 L330.5,114.0 L332.9,112.5 L335.3,111.0 L337.7,109.8 L340.2,108.6 L342.6,107.6 L345.0,106.6 L347.4,105.7 L349.8,104.9 L352.3,104.2 L354.7,103.6 L357.1,103.0 L359.5,102.5 L362.0,102.0 L364.4,101.6 L366.8,101.2 L369.2,100.8 L371.7,100.5 L374.1,100.2 L376.5,99.9 L378.9,99.7 L381.3,99.5 L383.8,99.3 L386.2,99.1 L388.6,98.9 L391.0,98.8 L393.5,98.6 L395.9,98.5 L398.3,98.4 L400.7,98.3 L403.2,98.2 L405.6,98.1 L408.0,98.1 L410.4,98.0 L412.9,97.9 L415.3,97.9 L417.7,97.8 L420.1,97.8 L422.5,97.7 L425.0,97.7 L427.4,97.7 L429.8,97.6 L432.2,97.6 L434.7,97.6 L437.1,97.6 L439.5,97.5 L441.9,97.5 L444.4,97.5 L446.8,98.3 L449.2,99.0 L451.6,99.6 L454.1,100.2 L456.5,100.7 L458.9,101.2 L461.3,101.7 L463.7,102.1 L466.2,102.4 L468.6,102.7 L471.0,103.0 L473.4,103.3 L475.9,103.5 L478.3,103.8 L480.7,104.0 L483.1,104.1 L485.6,104.3 L488.0,104.5 L490.4,104.6 L492.8,104.7 L495.2,104.8 L497.7,104.9 L500.1,105.0 L502.5,105.1 L504.9,105.2 L507.4,105.2 L509.8,105.3 L512.2,105.4 L514.6,105.4 L517.1,105.5 L519.5,105.5 L521.9,105.5 L524.3,105.6 L526.8,105.6 L529.2,105.6 L531.6,105.6 L534.0,105.7 L536.4,105.7 L538.9,105.7 L541.3,105.7 L543.7,105.7 L546.1,105.8 L548.6,105.8 L551.0,105.8 L553.4,105.8 L555.8,105.8 L558.3,105.8 L560.7,105.8 L563.1,105.8 L565.5,105.8 L567.9,105.9 L570.4,105.9 L572.8,105.9 L575.2,105.9 L577.6,105.9 L580.1,105.9 L582.5,105.9 L584.9,105.9 L587.3,106.0 L589.8,106.0 L592.2,106.0 L594.6,106.0 L597.0,106.0 L599.5,106.0 L601.9,106.0 L604.3,106.0 L606.7,106.0 L609.1,106.0 L611.6,106.0 L614.0,106.0 L616.4,106.0 L618.8,106.0 L621.3,106.0 L623.7,106.0 L626.1,106.0 L628.5,106.0 L631.0,106.0 L633.4,106.0 L635.8,106.0 L638.2,106.0 L640.7,106.0 L643.1,106.0 L645.5,106.0 L647.9,106.0 L650.3,106.0 L652.8,106.0 L655.2,106.0 L657.6,106.0 L660.0,106.0 L662.5,106.0 L664.9,106.0 L667.3,106.0 L669.7,106.0 L672.2,106.0 L674.6,106.0 L677.0,106.0 L679.4,106.0 L681.8,106.0 L684.3,106.0 L686.7,106.0 L689.1,106.0 L691.5,106.0 L694.0,106.0 L696.4,106.0 L698.8,106.0 L701.2,106.0 L703.7,106.0 L706.1,106.0 L708.5,106.0 L710.9,106.0 L713.4,106.0 L715.8,106.0 L718.2,106.0 L720.6,106.0 L723.0,106.0 L725.5,106.0 L727.9,106.0 L730.3,106.0 L732.7,106.0 L735.2,106.0 L737.6,106.0 L740.0,106.0 L742.4,106.0 L744.9,106.0 L747.3,106.0 L749.7,106.0 L752.1,106.0 L754.6,106.0 L757.0,106.0 L759.4,106.0 L761.8,106.0 L764.2,106.0 L766.7,106.0 L769.1,106.0 L771.5,106.0 L773.9,106.0 L776.4,106.0 L778.8,106.0 L781.2,106.0 L783.6,106.0 L786.1,106.0 L788.5,106.0 L790.9,106.0 L793.3,106.0 L795.7,106.0 L798.2,106.0 L800.6,106.0 L803.0,106.0 L805.4,106.0 L807.9,106.0 L810.3,106.0 L812.7,106.0 L815.1,106.0 L817.6,106.0 L820.0,106.0 L822.4,106.0 L824.8,106.0 L827.3,106.0 L829.7,106.0 L832.1,106.0 L834.5,106.0 L836.9,106.0 L839.4,106.0 L841.8,106.0 L844.2,106.0 L846.6,106.0 L849.1,106.0 L851.5,106.0 L853.9,106.0 L856.3,106.0 L858.8,106.0 L861.2,106.0 L863.6,106.0 L866.0,106.0 L868.5,106.0 L870.9,106.0 L873.3,106.0 L875.7,106.0 L878.1,106.0 L880.6,106.0 L883.0,106.0 L885.4,106.0 L887.8,106.0 L890.3,106.0 L892.7,106.0 L895.1,106.0 L897.5,106.0 L900.0,106.0 L902.4,106.0 L904.8,106.0 L907.2,106.0 L909.6,106.0 L912.1,106.0 L914.5,106.0 L916.9,106.0 L919.3,106.0 L921.8,106.0 L924.2,106.0 L926.6,106.0 L929.0,106.0 L931.5,106.0 L933.9,106.0 L936.3,106.0 L938.7,106.0 L941.2,106.0 L943.6,106.0 L946.0,106.0" fill="none" stroke="#2f6f73" stroke-width="2.4"/>
<rect x="780" y="56" width="13" height="13" fill="#333"/>
<text x="800" y="67" font-family="Arial" font-size="12">target</text>
<rect x="780" y="80" width="13" height="13" fill="#2f6f73"/>
<text x="800" y="91" font-family="Arial" font-size="12">simulated state</text>
</svg>