<svg xmlns="http://www.w3.org/2000/svg" width="820" height="430" viewBox="0 0 820 430">
<rect width="100%" height="100%" fill="#fbfbf8"/>
<text x="410.0" y="30" text-anchor="middle" font-family="Arial" font-size="18" font-weight="700">Qwen2.5-VL GPU Memory</text>
<line x1="82" y1="350" x2="790" y2="350" stroke="#333"/>
<line x1="82" y1="60" x2="82" y2="350" stroke="#333"/>
<text x="22" y="205.0" transform="rotate(-90 22 205.0)" text-anchor="middle" font-family="Arial" font-size="13">max memory MiB</text>
<line x1="78" y1="350.0" x2="790" y2="350.0" stroke="#ddd"/>
<text x="72" y="354.0" text-anchor="end" font-family="Arial" font-size="11" fill="#555">0</text>
<line x1="78" y1="277.5" x2="790" y2="277.5" stroke="#ddd"/>
<text x="72" y="281.5" text-anchor="end" font-family="Arial" font-size="11" fill="#555">2244</text>
<line x1="78" y1="205.0" x2="790" y2="205.0" stroke="#ddd"/>
<text x="72" y="209.0" text-anchor="end" font-family="Arial" font-size="11" fill="#555">4487</text>
<line x1="78" y1="132.5" x2="790" y2="132.5" stroke="#ddd"/>
<text x="72" y="136.5" text-anchor="end" font-family="Arial" font-size="11" fill="#555">6731</text>
<line x1="78" y1="60.0" x2="790" y2="60.0" stroke="#ddd"/>
<text x="72" y="64.0" text-anchor="end" font-family="Arial" font-size="11" fill="#555">8975</text>
<rect x="119.2" y="116.7" width="102.7" height="233.3" rx="3" fill="#2f6f73"/>
<text x="170.5" y="108.7" text-anchor="middle" font-family="Arial" font-size="12" font-weight="700">7219.0</text>
<text x="170.5" y="374" text-anchor="middle" font-family="Arial" font-size="11">1img\n224p</text>
<rect x="296.2" y="113.3" width="102.7" height="236.7" rx="3" fill="#c55f36"/>
<text x="347.5" y="105.3" text-anchor="middle" font-family="Arial" font-size="12" font-weight="700">7323.8</text>
<text x="347.5" y="374" text-anchor="middle" font-family="Arial" font-size="11">1img\n448p</text>
<rect x="473.2" y="114.5" width="102.7" height="235.5" rx="3" fill="#455a8a"/>
<text x="524.5" y="106.5" text-anchor="middle" font-family="Arial" font-size="12" font-weight="700">7288.8</text>
<text x="524.5" y="374" text-anchor="middle" font-family="Arial" font-size="11">3img\n224p</text>
<rect x="650.2" y="104.2" width="102.7" height="245.8" rx="3" fill="#8b6f2f"/>
<text x="701.5" y="96.2" text-anchor="middle" font-family="Arial" font-size="12" font-weight="700">7605.6</text>
<text x="701.5" y="374" text-anchor="middle" font-family="Arial" font-size="11">3img\n448p</text>
</svg>