<svg xmlns="http://www.w3.org/2000/svg" width="900" height="440" viewBox="0 0 900 440">
<rect width="100%" height="100%" fill="#fbfbf8"/>
<text x="450.0" y="30" text-anchor="middle" font-family="Arial" font-size="18" font-weight="700">KV Budget Sweep: Peak KV Memory</text>
<line x1="86" y1="350" x2="870" y2="350" stroke="#333"/>
<line x1="86" y1="60" x2="86" y2="350" stroke="#333"/>
<text x="22" y="205.0" transform="rotate(-90 22 205.0)" text-anchor="middle" font-family="Arial" font-size="13">MiB</text>
<line x1="82" y1="350.0" x2="870" y2="350.0" stroke="#ddd"/>
<text x="76" y="354.0" text-anchor="end" font-family="Arial" font-size="11" fill="#555">0.0</text>
<line x1="82" y1="277.5" x2="870" y2="277.5" stroke="#ddd"/>
<text x="76" y="281.5" text-anchor="end" font-family="Arial" font-size="11" fill="#555">100.7</text>
<line x1="82" y1="205.0" x2="870" y2="205.0" stroke="#ddd"/>
<text x="76" y="209.0" text-anchor="end" font-family="Arial" font-size="11" fill="#555">201.4</text>
<line x1="82" y1="132.5" x2="870" y2="132.5" stroke="#ddd"/>
<text x="76" y="136.5" text-anchor="end" font-family="Arial" font-size="11" fill="#555">302.2</text>
<line x1="82" y1="60.0" x2="870" y2="60.0" stroke="#ddd"/>
<text x="76" y="64.0" text-anchor="end" font-family="Arial" font-size="11" fill="#555">402.9</text>
<rect x="104.3" y="167.8" width="50.5" height="182.2" rx="3" fill="#2f6f73"/>
<text x="129.6" y="159.8" text-anchor="middle" font-family="Arial" font-size="12" font-weight="700">253.12</text>
<text x="129.6" y="374" text-anchor="middle" font-family="Arial" font-size="10">256MiB\nstatic</text>
<rect x="191.4" y="165.8" width="50.5" height="184.2" rx="3" fill="#c55f36"/>
<text x="216.7" y="157.8" text-anchor="middle" font-family="Arial" font-size="12" font-weight="700">255.94</text>
<text x="216.7" y="374" text-anchor="middle" font-family="Arial" font-size="10">256MiB\npaged</text>
<rect x="278.5" y="165.8" width="50.5" height="184.2" rx="3" fill="#455a8a"/>
<text x="303.8" y="157.8" text-anchor="middle" font-family="Arial" font-size="12" font-weight="700">255.94</text>
<text x="303.8" y="374" text-anchor="middle" font-family="Arial" font-size="10">256MiB\npaged_guarded</text>
<rect x="365.6" y="122.5" width="50.5" height="227.5" rx="3" fill="#8b6f2f"/>
<text x="390.9" y="114.5" text-anchor="middle" font-family="Arial" font-size="12" font-weight="700">316.12</text>
<text x="390.9" y="374" text-anchor="middle" font-family="Arial" font-size="10">320MiB\nstatic</text>
<rect x="452.7" y="120.0" width="50.5" height="230.0" rx="3" fill="#5c7f3b"/>
<text x="478.0" y="112.0" text-anchor="middle" font-family="Arial" font-size="12" font-weight="700">319.50</text>
<text x="478.0" y="374" text-anchor="middle" font-family="Arial" font-size="10">320MiB\npaged</text>
<rect x="539.8" y="120.0" width="50.5" height="230.0" rx="3" fill="#7a4f86"/>
<text x="565.1" y="112.0" text-anchor="middle" font-family="Arial" font-size="12" font-weight="700">319.50</text>
<text x="565.1" y="374" text-anchor="middle" font-family="Arial" font-size="10">320MiB\npaged_guarded</text>
<rect x="627.0" y="104.2" width="50.5" height="245.8" rx="3" fill="#2f6f73"/>
<text x="652.2" y="96.2" text-anchor="middle" font-family="Arial" font-size="12" font-weight="700">341.44</text>
<text x="652.2" y="374" text-anchor="middle" font-family="Arial" font-size="10">384MiB\nstatic</text>
<rect x="714.1" y="111.9" width="50.5" height="238.1" rx="3" fill="#c55f36"/>
<text x="739.3" y="103.9" text-anchor="middle" font-family="Arial" font-size="12" font-weight="700">330.75</text>
<text x="739.3" y="374" text-anchor="middle" font-family="Arial" font-size="10">384MiB\npaged</text>
<rect x="801.2" y="111.9" width="50.5" height="238.1" rx="3" fill="#455a8a"/>
<text x="826.4" y="103.9" text-anchor="middle" font-family="Arial" font-size="12" font-weight="700">330.75</text>
<text x="826.4" y="374" text-anchor="middle" font-family="Arial" font-size="10">384MiB\npaged_guarded</text>
</svg>