<svg xmlns="http://www.w3.org/2000/svg" width="900" height="440" viewBox="0 0 900 440">
<rect width="100%" height="100%" fill="#fbfbf8"/>
<text x="450.0" y="30" text-anchor="middle" font-family="Arial" font-size="18" font-weight="700">Continuous Batching Throughput, 512 MiB KV Budget</text>
<line x1="86" y1="350" x2="870" y2="350" stroke="#333"/>
<line x1="86" y1="60" x2="86" y2="350" stroke="#333"/>
<text x="22" y="205.0" transform="rotate(-90 22 205.0)" text-anchor="middle" font-family="Arial" font-size="13">requests/s</text>
<line x1="82" y1="350.0" x2="870" y2="350.0" stroke="#ddd"/>
<text x="76" y="354.0" text-anchor="end" font-family="Arial" font-size="11" fill="#555">0.0</text>
<line x1="82" y1="277.5" x2="870" y2="277.5" stroke="#ddd"/>
<text x="76" y="281.5" text-anchor="end" font-family="Arial" font-size="11" fill="#555">3.1</text>
<line x1="82" y1="205.0" x2="870" y2="205.0" stroke="#ddd"/>
<text x="76" y="209.0" text-anchor="end" font-family="Arial" font-size="11" fill="#555">6.2</text>
<line x1="82" y1="132.5" x2="870" y2="132.5" stroke="#ddd"/>
<text x="76" y="136.5" text-anchor="end" font-family="Arial" font-size="11" fill="#555">9.2</text>
<line x1="82" y1="60.0" x2="870" y2="60.0" stroke="#ddd"/>
<text x="76" y="64.0" text-anchor="end" font-family="Arial" font-size="11" fill="#555">12.3</text>
<rect x="127.2" y="317.0" width="113.7" height="33.0" rx="3" fill="#2f6f73"/>
<text x="184.0" y="309.0" text-anchor="middle" font-family="Arial" font-size="12" font-weight="700">1.40</text>
<text x="184.0" y="374" text-anchor="middle" font-family="Arial" font-size="10">serial</text>
<rect x="323.2" y="104.2" width="113.7" height="245.8" rx="3" fill="#c55f36"/>
<text x="380.0" y="96.2" text-anchor="middle" font-family="Arial" font-size="12" font-weight="700">10.44</text>
<text x="380.0" y="374" text-anchor="middle" font-family="Arial" font-size="10">cont\nstatic_kv</text>
<rect x="519.2" y="104.2" width="113.7" height="245.8" rx="3" fill="#455a8a"/>
<text x="576.0" y="96.2" text-anchor="middle" font-family="Arial" font-size="12" font-weight="700">10.44</text>
<text x="576.0" y="374" text-anchor="middle" font-family="Arial" font-size="10">cont\npaged_kv</text>
<rect x="715.2" y="104.2" width="113.7" height="245.8" rx="3" fill="#8b6f2f"/>
<text x="772.0" y="96.2" text-anchor="middle" font-family="Arial" font-size="12" font-weight="700">10.44</text>
<text x="772.0" y="374" text-anchor="middle" font-family="Arial" font-size="10">cont\npaged_kv_guarded</text>
</svg>