<svg xmlns="http://www.w3.org/2000/svg" width="760" height="420" viewBox="0 0 760 420">
<rect width="100%" height="100%" fill="#fbfbf8"/>
<text x="380.0" y="30" text-anchor="middle" font-family="Arial" font-size="18" font-weight="700">Qwen3 Attention Backend TPOT, B4 P1024 D128</text>
<line x1="76" y1="348" x2="732" y2="348" stroke="#333" stroke-width="1"/>
<line x1="76" y1="60" x2="76" y2="348" stroke="#333" stroke-width="1"/>
<text x="20" y="204.0" transform="rotate(-90 20 204.0)" text-anchor="middle" font-family="Arial" font-size="13">TPOT ms/token</text>
<line x1="72" y1="348.0" x2="732" y2="348.0" stroke="#ddd" stroke-width="1"/>
<text x="66" y="352.0" text-anchor="end" font-family="Arial" font-size="11" fill="#555">0</text>
<line x1="72" y1="276.0" x2="732" y2="276.0" stroke="#ddd" stroke-width="1"/>
<text x="66" y="280.0" text-anchor="end" font-family="Arial" font-size="11" fill="#555">9</text>
<line x1="72" y1="204.0" x2="732" y2="204.0" stroke="#ddd" stroke-width="1"/>
<text x="66" y="208.0" text-anchor="end" font-family="Arial" font-size="11" fill="#555">17</text>
<line x1="72" y1="132.0" x2="732" y2="132.0" stroke="#ddd" stroke-width="1"/>
<text x="66" y="136.0" text-anchor="end" font-family="Arial" font-size="11" fill="#555">26</text>
<line x1="72" y1="60.0" x2="732" y2="60.0" stroke="#ddd" stroke-width="1"/>
<text x="66" y="64.0" text-anchor="end" font-family="Arial" font-size="11" fill="#555">35</text>
<rect x="121.9" y="198.7" width="126.8" height="149.3" fill="#2f6f73" rx="3"/>
<text x="185.3" y="190.7" text-anchor="middle" font-family="Arial" font-size="12" font-weight="700">18.10</text>
<text x="185.3" y="370" text-anchor="middle" font-family="Arial" font-size="11">SDPA</text>
<rect x="340.6" y="195.6" width="126.8" height="152.4" fill="#c55f36" rx="3"/>
<text x="404.0" y="187.6" text-anchor="middle" font-family="Arial" font-size="12" font-weight="700">18.49</text>
<text x="404.0" y="370" text-anchor="middle" font-family="Arial" font-size="11">eager</text>
<rect x="559.3" y="103.9" width="126.8" height="244.1" fill="#455a8a" rx="3"/>
<text x="622.7" y="95.9" text-anchor="middle" font-family="Arial" font-size="12" font-weight="700">29.60</text>
<text x="622.7" y="370" text-anchor="middle" font-family="Arial" font-size="11">FA2</text>
</svg>